# xmcd
#
# Track frame offsets: 
#        187
#        14417
#        30237
#        46250
#        61642
#        77410
#        90272
#        103532
#        120350
#        132910
#
# Disc length: 1981 seconds
#
# Revision: 6
# Processed by: cddbd v1.5.2PL0 Copyright (c) Steve Scherf et al.
# Submitted via: ExactAudioCopy v1.1
#
DISCID=6107bb0a
DTITLE=Shenandoah - Long Time Comin'
DYEAR=1992
DGENRE=Country
TTITLE0=Rock My Baby
TTITLE1=Hey Mister (I Need This Job)
TTITLE2=Leavin's Been A Long Time Comin'
TTITLE3=Same Old Heart
TTITLE4=Right Where I Belong
TTITLE5=I Was Young Once Too
TTITLE6=Give Me Five Minutes
TTITLE7=Wednesday Night Prayer Meetin'
TTITLE8=Rattle The Windows
TTITLE9=There Ain't No Beverly Hills In Tennessee
EXTD=YEAR: 1992
EXTT0=
EXTT1=
EXTT2=
EXTT3=
EXTT4=
EXTT5=
EXTT6=
EXTT7=
EXTT8=
EXTT9=
PLAYORDER=
